# xmcd CD database file
#
# Track frame offsets:
#	150
#	18970
#	34360
#	54275
#	71825
#	93182
#	115527
#	139065
#	164700
#	190095
#
# Disc length: 2804 seconds
#
# Revision: 3
# Processed by: cddbd v1.5PL3 Copyright (c) Steve Scherf et al.
# Submitted via: CDex 1.51
#
DISCID=820af20a
DTITLE=徳永愛 - Missing Diamond
DYEAR=2001
DGENRE=Pop
TTITLE0=Love&Dive
TTITLE1=missing diamond
TTITLE2=ピンク色の木の上
TTITLE3=Beginning
TTITLE4=青い時代の神話
TTITLE5=ダイエットウーマン
TTITLE6=L・O・V・E
TTITLE7=笑顔でサヨナラ
TTITLE8=輝いて・・・
TTITLE9=LOVE is the BEAT
EXTD=YEAR: 2001
EXTT0=
EXTT1=
EXTT2=
EXTT3=
EXTT4=
EXTT5=
EXTT6=
EXTT7=
EXTT8=
EXTT9=
PLAYORDER=
